<?xml version="1.0" standalone="no"?><!DOCTYPE svg PUBLIC "-//W3C//DTD SVG 1.1//EN" "http://www.w3.org/Graphics/SVG/1.1/DTD/svg11.dtd"><svg t="1647272057833" class="icon" viewBox="0 0 1045 1024" version="1.1" xmlns="http://www.w3.org/2000/svg" p-id="4170" xmlns:xlink="http://www.w3.org/1999/xlink" width="204.1015625" height="200"><defs><style type="text/css"></style></defs><path d="M882.421046 1024H162.643634a162.778664 162.778664 0 0 1-162.576119-162.576119V162.576119A162.778664 162.778664 0 0 1 162.643634 0h719.912442a162.778664 162.778664 0 0 1 162.576119 162.576119V861.491396a162.846179 162.846179 0 0 1-162.711149 162.508604zM162.643634 75.009165a87.7695 87.7695 0 0 0-87.769499 87.769499v698.915277a87.7695 87.7695 0 0 0 87.769499 87.769499h719.912442a87.7695 87.7695 0 0 0 87.769499-87.769499V162.576119a87.7695 87.7695 0 0 0-87.769499-87.769499z" p-id="4171"></path><path d="M214.900244 674.609877a37.53834 37.53834 0 0 1-25.79073-64.8144l171.960704-162.778664a77.37219 77.37219 0 0 1 105.120855-0.877695l129.763829 118.826399a2.16048 2.16048 0 0 0 2.97066 0l213.887519-205.380629a37.53834 37.53834 0 0 1 51.98655 54.012L650.912112 618.977517a77.37219 77.37219 0 0 1-105.59346 1.21527l-129.763829-118.826399a2.092965 2.092965 0 0 0-2.903145 0L240.690974 664.010022a37.40331 37.40331 0 0 1-25.79073 10.599855z" p-id="4172"></path></svg>